# xmcd CD database file
#
# Track frame offsets:
#	180
#	17583
#	36903
#	56233
#	77427
#	105975
#	131730
#	156617
#	184396
#	206990
#	232875
#	252585
#	267287
#	278257
#	297275
#
# Disc length: 4404 seconds
#
# Revision: 0
# Processed by: cddbd v1.5.1PL0 Copyright (c) Steve Scherf et al.
# Submitted via: CDex 1.50Beta7
#
DISCID=d911320f
DTITLE=Cheo Feliciano - The Best
DYEAR=1900
DGENRE=Salsa
TTITLE0=El Raton
TTITLE1=Nabori
TTITLE2=Anacaona
TTITLE3=Salome
TTITLE4=Periodico De Siempre
TTITLE5=Sali Por Que Sali
TTITLE6=Sobre Una Tumba Humilde
TTITLE7=Juan Albañil
TTITLE8=Los Entierros
TTITLE9=Yo No Soy Un Angel
TTITLE10=Pa' Que Afinquen
TTITLE11=Siempre Sea
TTITLE12=Que Va
TTITLE13=Olvida Las Penas
TTITLE14=Canta
EXTD=
EXTT0=
EXTT1=
EXTT2=
EXTT3=
EXTT4=
EXTT5=
EXTT6=
EXTT7=
EXTT8=
EXTT9=
EXTT10=
EXTT11=
EXTT12=
EXTT13=
EXTT14=
PLAYORDER=
